<svg xmlns="http://www.w3.org/2000/svg" viewBox="0 0 1699 420" width="1699" height="420" role="img" aria-labelledby="sc-logo-title">
  <title id="sc-logo-title">Server Curio — Project Templates</title>
  <g id="mark">
    <path fill="#4D1229" d="M84.2,312.8c-5.9,0-11.7-2.2-16.2-6.7c-33-33-51.1-76.8-51.1-123.4C16.9,86.5,95.2,8.2,191.4,8.2 s174.5,78.3,174.5,174.5c0,46.2-17.9,89.7-50.3,122.6c-8.9,9-23.4,9.1-32.4,0.2c-9-8.9-9.1-23.4-0.2-32.4 c23.9-24.2,37.1-56.4,37.1-90.4c0-71-57.7-128.7-128.7-128.7c-71,0-128.7,57.7-128.7,128.7c0,34.4,13.4,66.7,37.7,91 c8.9,8.9,8.9,23.4,0,32.4C95.9,310.6,90,312.8,84.2,312.8z"/>
    <path fill="#993744" d="M106.9,245.6c-4.8,0-9.4-2.5-12-6.9c-15.2-25.8-19.4-55.9-11.8-84.9c15.5-59.8,76.8-95.8,136.5-80.2 c29,7.5,53.2,25.9,68.4,51.6c15.2,25.8,19.4,55.9,11.8,84.9c-1.9,7.4-9.5,11.9-17,10c-7.4-1.9-11.9-9.5-10-17 c5.6-21.7,2.5-44.4-8.9-63.8c-11.4-19.4-29.6-33.1-51.4-38.8c-44.9-11.7-90.9,15.4-102.5,60.3c-5.6,21.7-2.5,44.4,8.9,63.8 c3.9,6.6,1.7,15.2-5,19.1C111.7,245,109.3,245.6,106.9,245.6z"/>
    <path fill="#B61F33" d="M190.6,357c-29.7,0-55.1-20.1-61.8-49c-0.8-3.2,1.2-6.4,4.5-7.2c3.2-0.8,6.4,1.2,7.2,4.5 c5.5,23.4,26.1,39.8,50.2,39.8c28.4,0,51.6-23.1,51.6-51.6c0-22.1-16.1-38.1-52.2-52c-31.9-12.3-61.4-28.4-61.4-63.1 c0-35,28.5-63.5,63.5-63.5c29.7,0,55.1,20.1,61.8,49c0.8,3.2-1.2,6.4-4.5,7.2c-3.2,0.7-6.4-1.2-7.2-4.5 c-5.5-23.4-26.1-39.8-50.2-39.8c-28.4,0-51.6,23.1-51.6,51.6c0,26.1,20.6,39.2,53.7,52c27.9,10.7,59.9,27.6,59.9,63.1 C254.1,328.5,225.7,357,190.6,357z"/>
    <circle fill="#F7BB7A" cx="299.3" cy="289.1" r="24"/>
    <circle fill="#F7BB7A" cx="286.1" cy="206.4" r="14.7"/>
    <circle fill="#F7BB7A" cx="247.5" cy="165.2" r="6.8"/>
  </g>
  <g id="wordmark">
    <path fill="#B61F33" d="M458.8,255.6c-28.6,0-49.3-19-49.7-48h16.1c0.9,19.8,13.3,33.4,33.6,33.4c17.9,0,32.5-14,32.5-32 c0-21.8-18.3-29.2-36-34.5c-22.9-6.8-41.9-14.6-41.9-42.5c0-25.5,20.5-43.4,45.4-43.4c24.9,0,44.7,18.8,44.7,43.8h-16.1 c0-15.7-12.6-29.2-28.6-29.2c-16.1,0-29.2,11.8-29.2,28.1c0,21.6,22,25.3,38.4,30.3c23.1,7,39.5,21.6,39.5,46.7 C507.5,235.1,485.4,255.6,458.8,255.6z"/>
    <path fill="#B61F33" d="M649.8,198.7H541.2c1.1,23.5,22.9,43.2,46.2,43.2c18.3,0,36.2-10.5,42.7-28.1h16.1 c-8.7,24.9-32.3,41.9-58.7,41.9c-34.5,0-62.1-28.1-62.1-62.4c0-34,27.7-62.8,61.9-62.8c34.9,0,62.6,29.4,62.6,63.9 C650,195.8,649.8,197.1,649.8,198.7z M587.7,144.1c-23.8,0-42.7,17.4-46.4,40.8h93.1C630.4,161.6,611.7,144.1,587.7,144.1z"/>
    <path fill="#B61F33" d="M688.4,183v69.8h-15.3V133.5h15.3v17.2h0.4c6.5-15.3,18.1-19.2,33.6-20.3v16.1 C701.5,148.3,688.4,161.6,688.4,183z"/>
    <path fill="#B61F33" d="M793.3,252.7h-16.8l-50.4-119.3h16.3l42.1,100.3l42.7-100.3h16.3L793.3,252.7z"/>
    <path fill="#B61F33" d="M977.9,198.7H869.4c1.1,23.5,22.9,43.2,46.2,43.2c18.3,0,36.2-10.5,42.7-28.1h16.1 c-8.7,24.9-32.3,41.9-58.7,41.9c-34.5,0-62.1-28.1-62.1-62.4c0-34,27.7-62.8,61.9-62.8c34.9,0,62.6,29.4,62.6,63.9 C978.2,195.8,977.9,197.1,977.9,198.7z M915.8,144.1c-23.8,0-42.7,17.4-46.4,40.8h93.1C958.5,161.6,939.8,144.1,915.8,144.1z"/>
    <path fill="#B61F33" d="M1016.5,183v69.8h-15.3V133.5h15.3v17.2h0.4c6.5-15.3,18.1-19.2,33.6-20.3v16.1 C1029.6,148.3,1016.5,161.6,1016.5,183z"/>
    <path fill="#4D1229" d="M1206.9,255.6c-46.2,0-84.4-36.6-84.4-83.3c0-47.1,37.3-83.5,84.2-83.5c24.4,0,47.5,10.5,63.7,28.8 c4.1,4.6,7.9,9.6,10.2,15.3h-18.1c-12.4-18.5-33.8-29.4-56-29.4c-37.1,0-67.8,32.5-67.8,69.1c0,36.2,31.6,68.5,68,68.5 c23.3,0,42.7-12.2,56.5-30.5h18.1C1266.4,237.7,1238,255.6,1206.9,255.6z"/>
    <path fill="#4D1229" d="M1393.9,252.7v-18.5h-0.4c-7,14.6-22.5,21.4-38.2,21.4c-15.5,0-31.2-5.5-41-17.9 c-8.5-10.7-10.5-25.1-10.5-38.4v-65.8h15.3v65.6c0,24.6,8.9,42.7,36.2,42.7c10,0,17.9-2.6,25.3-9.6c10.5-10,12.4-21.8,12.4-35.8 v-63h15.3v119.3H1393.9z"/>
    <path fill="#4D1229" d="M1452.3,183v69.8h-15.3V133.5h15.3v17.2h0.4c6.5-15.3,18.1-19.2,33.6-20.3v16.1 C1465.4,148.3,1452.3,161.6,1452.3,183z"/>
    <path fill="#4D1229" d="M1502.7,118.8V91.4h15.3v27.5H1502.7z M1502.7,252.7V133.5h15.3v119.3H1502.7z"/>
    <path fill="#4D1229" d="M1603.4,255.6c-33.6,0-62.1-28.1-62.1-61.7c0-34.5,27.5-63.4,62.1-63.4c34,0,62.6,28.6,62.6,62.6 C1666,227.2,1637.7,255.6,1603.4,255.6z M1603.6,144.1c-27,0-47.1,23.1-47.1,49.5c0,25.9,20.7,48.2,47.1,48.2 c27.5,0,47.1-22.7,47.1-49.5C1650.7,166.4,1629.8,144.1,1603.6,144.1z"/>
  </g>
  <g id="tagline">
    <text x="1037" y="360" text-anchor="middle" fill="#993744" font-family="'Open Sans','Helvetica Neue',Arial,sans-serif" font-size="104" font-weight="500">Project Templates</text>
  </g>
</svg>
